Coordinates
version=1
nRows=26
nColumns=24
inDegrees=yes

Units are S.I. units (second, meters, Newtons, ...)
Angles are in degrees.

endheader
time	pelvis_tilt	pelvis_list	pelvis_rotation	pelvis_tx	pelvis_ty	pelvis_tz	hip_flexion_r	hip_adduction_r	hip_rotation_r	knee_angle_r	ankle_angle_r	subtalar_angle_r	mtp_angle_r	hip_flexion_l	hip_adduction_l	hip_rotation_l	knee_angle_l	ankle_angle_l	subtalar_angle_l	mtp_angle_l	lumbar_extension	lumbar_bending	lumbar_rotation
      0.74200000	     -3.15992341	     -0.03858140	     11.62851236	      0.01086925	      0.98121242	      0.24933517	     30.45954361	     -3.48285200	     -9.35355897	      1.97678427	     10.24877166	     -3.29578322	      4.19361948	    -19.42856671	      0.95949242	     10.34807756	     -7.92050308	     13.86079182	     -3.84356802	      1.32906648	      1.17812223	     -2.61725745	     -9.23906032
      0.74616667	     -3.15010805	     -0.14981554	     11.87247230	      0.01725546	      0.98043521	      0.24928713	     30.55822737	     -3.47393869	     -9.42575258	      1.27005786	     10.34094080	     -3.64822118	      4.20242213	    -19.67258579	      0.67633009	     10.35448167	     -8.08757060	     13.63442469	     -3.70985414	      1.33161011	      1.25898937	     -2.51786144	     -9.32428988
      0.75033333	     -3.14024801	     -0.26602062	     12.11676027	      0.02369569	      0.97966475	      0.24925807	     30.61839942	     -3.44783931	     -9.34791068	      0.62552639	     10.23792190	     -4.30058614	      4.26638983	    -19.89162750	      0.38042282	     10.26086351	     -8.30050728	     13.45530900	     -3.41834552	      1.40497861	      1.36902482	     -2.38948577	     -9.77269607
      0.75450000	     -3.12786997	     -0.38699262	     12.36120285	      0.03018256	      0.97893060	      0.24924134	     30.69329292	     -3.41812607	     -9.37080476	     -0.08251760	     10.21294264	     -4.74953288	      4.30577215	    -20.11948182	      0.07975057	     10.23360087	     -8.49223347	     13.15571910	     -3.26605427	      1.44588806	      1.50295285	     -2.25304948	     -9.90378978
      0.75866667	     -3.12462618	     -0.51461011	     12.58706583	      0.03669836	      0.97817946	      0.24931314	     30.75692880	     -3.35719639	     -9.23157214	     -0.73981369	      9.91897962	     -5.55376999	      4.44666360	    -20.32149749	     -0.22689833	     10.15470420	     -8.71516454	     12.94025134	     -3.03790796	      1.61917314	      1.58732687	     -2.14681315	    -10.27660335
      0.76283333	     -3.11799651	     -0.65511574	     12.80869382	      0.04327205	      0.97746087	      0.24940070	     30.82306572	     -3.27849355	     -9.14390210	     -1.42375998	      9.63290459	     -6.25736747	      4.62825959	    -20.52242287	     -0.54752603	     10.07456460	     -8.93626557	     12.63607314	     -2.86022050	      1.84528552	      1.71056362	     -2.00963109	    -10.51084131
      0.76700000	     -3.09343578	     -0.80426476	     13.02128952	      0.04988759	      0.97678661	      0.24952648	     30.86976630	     -3.17565227	     -9.05130635	     -2.10961415	      9.27800170	     -6.98430409	      4.84971883	    -20.73703593	     -0.88125862	      9.98563617	     -9.15982927	     12.30217002	     -2.69000133	      2.12960128	      1.81596528	     -1.86375061	    -10.74716920
      0.77116667	     -3.09082303	     -0.96059295	     13.22280857	      0.05654296	      0.97610429	      0.24969453	     30.94587302	     -3.05837541	     -8.95323820	     -2.80827509	      8.85266351	     -7.72780225	      5.09429320	    -20.91575152	     -1.21565054	      9.88407025	     -9.40144515	     11.93367727	     -2.53799140	      2.45392455	      1.96415737	     -1.71207867	    -10.96630071
      0.77533333	     -3.03541916	     -1.14123519	     13.40325862	      0.06326379	      0.97551046	      0.24992322	     30.96860889	     -2.88882678	     -8.87017599	     -3.49931116	      8.35631174	     -8.45888703	      7.18306460	    -21.14748463	     -1.59091032	      9.69274632	     -9.62516102	     11.47993989	     -2.29780163	      5.32089137	      2.05859758	     -1.51750367	    -10.94297823
      0.77950000	     -3.07961164	     -1.30255705	     13.59036918	      0.06996307	      0.97482152	      0.25017200	     31.12347052	     -2.76246167	     -8.80797995	     -4.25807970	      7.84077703	     -9.12528903	      7.22936383	    -21.25138561	     -1.91526680	      9.61711608	     -9.90409540	     11.02998632	     -2.25180497	      5.41641476	      2.25920962	     -1.39958720	    -11.34615886
      0.78366667	     -3.08072478	     -1.49095041	     13.74999272	      0.07672356	      0.97421389	      0.25048871	     31.22160984	     -2.57308499	     -8.67597914	     -4.97694116	      7.22683882	     -9.91089078	      7.31643683	    -21.39518433	     -2.27436711	      9.47243084	    -10.18034902	     10.56659080	     -2.12670179	      5.58892225	      2.41821404	     -1.22540246	    -11.53470393
      0.78783333	     -3.07288123	     -1.68950997	     13.89393671	      0.08351001	      0.97364793	      0.25085587	     31.32278252	     -2.35883883	     -8.54435594	     -5.71485592	      6.58142150	    -10.67985312	      7.44292129	    -21.53300394	     -2.64304876	      9.29295164	    -10.47665441	     10.06913782	     -1.98989846	      5.84264006	      2.57279359	     -1.04253206	    -11.70734140
      0.79200000	     -3.08394642	     -1.89502475	     14.02005660	      0.09031553	      0.97308665	      0.25127218	     31.46169844	     -2.12953791	     -8.40992887	     -6.48442863	      5.91736934	    -11.41247025	      7.59698471	    -21.63528923	     -3.00873408	      9.10091292	    -10.79730462	      9.54325121	     -1.86673769	      6.16434881	      2.76334244	     -0.84638963	    -11.86375436
      0.79616667	     -3.00146006	     -2.13409247	     14.12387673	      0.09717553	      0.97267221	      0.25173441	     31.51415934	     -1.83260236	     -8.32207624	     -7.26300130	      5.25273204	    -12.08517975	      9.04320939	    -21.83356464	     -3.43424284	      8.80208479	    -11.09357295	      8.91304281	     -1.63699684	      9.26279640	      2.84099078	     -0.58716524	    -11.85535272
      0.80033333	     -3.08822692	     -2.32964217	     14.20811144	      0.10398815	      0.97208120	      0.25225405	     31.78191241	     -1.60948631	     -8.18885589	     -8.13437497	      4.59489305	    -12.67471865	      9.08023460	    -21.82987093	     -3.75192308	      8.63959794	    -11.45984587	      8.29247797	     -1.64122370	      9.41136316	      3.11076706	     -0.46129098	    -12.11435724
      0.80450000	     -3.09289141	     -2.57738248	     14.27039356	      0.11086169	      0.97161883	      0.25280419	     31.96493230	     -1.29885243	     -8.04544999	     -8.99291961	      3.96011327	    -13.28397037	      9.13173076	    -21.89793129	     -4.13935068	      8.38620913	    -11.83479633	      7.67257670	     -1.56307375	      9.61081647	      3.30599430	     -0.19148719	    -12.21698214
      0.80866667	     -3.10719520	     -2.82561843	     14.30837566	      0.11774939	      0.97118232	      0.25341691	     32.17537242	     -0.97492466	     -7.89113476	     -9.88829703	      3.35232623	    -13.84418579	      9.20205690	    -21.94359348	     -4.51825660	      8.10991246	    -12.22847651	      6.99879253	     -1.46841111	      9.89248995	      3.50347652	      0.04656251	    -12.30830704
      0.81283333	     -3.10690164	     -3.07223414	     14.32785564	      0.12463850	      0.97080285	      0.25406927	     32.38545904	     -0.63877707	     -7.73562104	    -10.82108255	      2.78611162	    -14.35454275	      9.29300030	    -21.98743895	     -4.89228228	      7.81042991	    -12.65060404	      6.28934515	     -1.38044037	     10.28263696	      3.68885356	      0.29675023	    -12.37570477
      0.81700000	     -3.08420874	     -3.32606348	     14.32349259	      0.13153966	      0.97048922	      0.25476110	     32.59472897	     -0.28522058	     -7.63919169	    -11.80081371	      2.25986777	    -14.69820431	     10.23960990	    -22.04251489	     -5.27538943	      7.45227046	    -13.07694179	      5.45267864	     -1.27448907	     14.68698375	      3.83031029	      0.53756473	    -12.40727309
      0.82116667	     -3.06296372	     -3.56982496	     14.31388126	      0.13843685	      0.97022569	      0.25545700	     32.82014709	      0.05676174	     -7.56125047	    -12.84044064	      1.96337263	    -14.87426746	     10.23505905	    -22.08036582	     -5.63645496	      7.14918598	    -13.54019372	      4.61154442	     -1.24769302	     14.69094955	      3.95465121	      0.76904831	    -12.45332997
      0.82533333	     -3.07723841	     -3.83492686	     14.25545778	      0.14539106	      0.96992100	      0.25625216	     33.06614693	      0.45969511	     -7.32082812	    -13.82327706	      1.46842424	    -15.37675703	     10.22609933	    -22.07139032	     -5.99490111	      6.80507619	    -14.02950669	      3.80369437	     -1.19314213	     14.86371108	      4.18633472	      1.05575558	    -12.48464774
      0.82950000	     -3.04756806	     -4.10197710	     14.18125832	      0.15235995	      0.96972027	      0.25705714	     33.28256790	      0.87082014	     -7.17324606	    -14.86122525	      1.17477023	    -15.56979530	     10.22095946	    -22.10547279	     -6.35799113	      6.45226517	    -14.51485876	      2.92641666	     -1.14442856	     15.01842480	      4.32102244	      1.34460134	    -12.50457172
      0.83366667	     -3.01738593	     -4.36775540	     14.10449734	      0.15930805	      0.96957221	      0.25788518	     33.47535834	      1.29497799	     -6.97265220	    -15.84974723	      0.83451481	    -15.89960898	     10.20310484	    -22.08950923	     -6.72261362	      6.03927489	    -15.09217178	      2.02237885	     -1.10411887	     15.47088242	      4.48016256	      1.64019441	    -12.47265596
      0.83783333	     -2.94233405	     -4.60247074	     13.99338443	      0.16625786	      0.96951482	      0.25876982	     33.63382884	      1.71105331	     -6.80909694	    -16.89215392	      0.61300684	    -16.03314982	     10.00151664	    -22.13601994	     -7.05703367	      5.60559759	    -15.63350465	      0.96867710	     -1.03592184	     19.55864880	      4.53798850	      1.87312907	    -12.45850735
      0.84200000	     -2.88933238	     -4.86211376	     13.90625338	      0.17322374	      0.96949305	      0.25958803	     33.79444520	      2.12558933	     -6.72288875	    -17.89571405	      0.44619809	    -16.06619706	      9.99913424	    -22.12177216	     -7.40970873	      5.24161077	    -16.23577366	     -0.04848056	     -1.01641505	     19.55941471	      4.63251074	      2.15136232	    -12.48874700
      0.84616667	     -2.81882514	     -5.10081307	     13.78005693	      0.18018794	      0.96953205	      0.26046952	     33.91654912	      2.55468759	     -6.56601410	    -18.86914379	      0.30174588	    -16.12252430	      9.99188647	    -22.11671838	     -7.73176694	      4.83148524	    -16.86540471	     -1.09460885	     -1.00186850	     19.58914162	      4.73654942	      2.45037700	    -12.49580299
